<svg xmlns="http://www.w3.org/2000/svg" xmlns:xlink="http://www.w3.org/1999/xlink" width="31" height="33" viewBox="0 0 31 33"><defs><path id="hjw0a" d="M990.3 29.7v29.22c0 .3-.25.54-.55.54h-29.2a.54.54 0 0 1-.55-.54V29.7c0-.3.24-.54.54-.54h3.79v-1.62c0-.3.24-.54.54-.54h3.79c.3 0 .54.24.54.54v1.62h11.9v-1.62c0-.3.24-.54.54-.54h3.79c.3 0 .54.24.54.54v1.62h3.78c.3 0 .54.24.54.54zm-8.12 1.63h2.7v-3.25h-2.7zm-16.77 0h2.7v-3.25h-2.7zm-4.33 3.78h28.13v-4.86h-3.24v1.62c0 .3-.25.54-.54.54h-3.8a.54.54 0 0 1-.53-.54v-1.62h-11.9v1.62c0 .3-.25.54-.54.54h-3.8a.54.54 0 0 1-.53-.54v-1.62h-3.25zm28.13 23.27V36.2h-28.13v22.18zm-3.78-18.94v15.69h-20.56V39.44zm-9.74 4.87h3.78v-3.79h-3.78zm3.78 1.08h-3.78v3.79h3.78zm-8.65 3.79h3.79v-3.79h-3.8zm0-4.87h3.79v-3.79h-3.8zm-4.87 0h3.79v-3.79h-3.79zm0 4.87h3.79v-3.79h-3.79zm3.79 1.08h-3.79v3.79h3.79zm4.87 0h-3.8v3.79h3.8zm4.86 0h-3.78v3.79h3.78zm4.87 0h-3.78v3.79h3.78zm0-4.87h-3.78v3.79h3.78zm-3.78-4.87v3.79h3.78v-3.79z"/></defs><g><g transform="translate(-960 -27)"><use xlink:href="#hjw0a"/><use fill="#898989" xlink:href="#hjw0a"/></g></g></svg>