<svg xmlns="http://www.w3.org/2000/svg" xmlns:xlink="http://www.w3.org/1999/xlink" width="26" height="26" viewBox="0 0 26 26"><defs><path id="cs2ha" d="M1278.87 30a12.87 12.87 0 1 0 0 25.74 12.87 12.87 0 0 0 0-25.74z"/><path id="cs2hb" d="M1286.93 39.78v6.9c0 2.36-1.91 4.27-4.26 4.27h-6.91a4.26 4.26 0 0 1-4.26-4.26v-6.91c0-2.35 1.91-4.26 4.26-4.26h6.91c2.35 0 4.26 1.91 4.26 4.26zm-1.37 6.9v-6.9a2.9 2.9 0 0 0-2.89-2.9h-6.91a2.9 2.9 0 0 0-2.89 2.9v6.9a2.9 2.9 0 0 0 2.89 2.9h6.91a2.9 2.9 0 0 0 2.89-2.9zm-2.37-3.45a3.98 3.98 0 1 1-7.96 0 3.98 3.98 0 0 1 7.96 0zm-1.37 0a2.6 2.6 0 1 0-5.22 0 2.6 2.6 0 0 0 5.22 0zm2.25-4.84a1 1 0 0 1 0 1.42c-.19.19-.45.3-.71.3a1.01 1.01 0 0 1-1-1 1.01 1.01 0 0 1 1-1.01 1 1 0 0 1 .7.3z"/></defs><g><g transform="translate(-1266 -30)"><use xlink:href="#cs2ha"/><use fill="#6c27b3" xlink:href="#cs2ha"/></g><g transform="translate(-1266 -30)"><use xlink:href="#cs2hb"/><use fill="#fff" xlink:href="#cs2hb"/></g></g></svg>