<svg xmlns="http://www.w3.org/2000/svg" xmlns:xlink="http://www.w3.org/1999/xlink" width="26" height="26" viewBox="0 0 26 26"><defs><path id="k0wza" d="M1220 43a13 13 0 1 1-26 0 13 13 0 0 1 26 0zm-6.55-.05c.48-.68 1-1.32 1.48-1.99.45-.62.92-1.25 1.15-2 .15-.47.02-.68-.47-.77a1.5 1.5 0 0 0-.25-.01h-2.9c-.36-.01-.55.14-.68.46-.17.43-.35.86-.55 1.27a10.4 10.4 0 0 1-1.7 2.6c-.16.17-.33.39-.6.3-.33-.12-.43-.67-.42-.86v-3.34c-.07-.48-.17-.7-.65-.78h-3c-.41 0-.61.15-.83.4-.12.15-.16.24.1.29.5.1.78.42.85.92.12.8.11 1.6.05 2.4-.02.24-.07.47-.16.7-.14.34-.38.4-.69.2-.28-.2-.47-.47-.67-.74a16.17 16.17 0 0 1-1.76-3.27c-.14-.34-.37-.54-.73-.54a73.3 73.3 0 0 0-2.6 0c-.53 0-.68.26-.47.73.95 2.11 2 4.16 3.38 6.02a8.4 8.4 0 0 0 2.56 2.4c1.19.68 2.47.89 3.81.82.63-.03.82-.2.85-.82.02-.43.07-.86.28-1.24.2-.38.52-.45.89-.22.18.12.33.27.48.43.35.39.7.79 1.06 1.16.46.47 1.01.75 1.7.7h2.66c.43-.04.65-.56.4-1.04-.17-.34-.4-.63-.63-.92-.55-.66-1.19-1.21-1.8-1.8-.54-.54-.58-.85-.14-1.46z"/></defs><g><g transform="translate(-1194 -30)"><use xlink:href="#k0wza"/><use fill="#4d76a1" xlink:href="#k0wza"/></g></g></svg>